<svg width="1687" height="650" viewBox="0 0 1687 650" fill="none" xmlns="http://www.w3.org/2000/svg">
    <path
        d="M325 75C463.071 75 575 186.929 575 325C575 463.071 463.071 575 325 575C186.929 575 75 463.071 75 325C75 186.929 186.929 75 325 75ZM325 150C228.35 150 150 228.35 150 325C150 421.65 228.35 500 325 500C421.65 500 500 421.65 500 325C500 228.35 421.65 150 325 150Z"
        fill="white" />
    <path
        d="M325 0C504.493 0 650 145.507 650 325C650 504.493 504.493 650 325 650C145.507 650 0 504.493 0 325C0 145.507 145.507 0 325 0ZM325 75C186.929 75 75 186.929 75 325C75 463.071 186.929 575 325 575C463.071 575 575 463.071 575 325C575 186.929 463.071 75 325 75ZM325 150C421.65 150 500 228.35 500 325C500 421.65 421.65 500 325 500C228.35 500 150 421.65 150 325C150 228.35 228.35 150 325 150ZM325 225C269.772 225 225 269.772 225 325C225 380.228 269.772 425 325 425C380.228 425 425 380.228 425 325C425 269.772 380.228 225 325 225Z"
        fill="white" fill-opacity="0.05" />
    <path
        d="M798.989 429.863C796.789 429.873 794.986 429.182 793.579 427.788C792.173 426.395 791.464 424.598 791.454 422.398L790.741 266.999L737.342 267.245C735.142 267.255 733.339 266.563 731.932 265.169C730.525 263.576 729.817 261.779 729.807 259.779L729.66 227.679C729.65 225.479 730.342 223.676 731.735 222.27C733.129 220.863 734.926 220.155 737.126 220.145L898.524 219.404C900.724 219.394 902.527 220.086 903.934 221.48C905.34 222.873 906.048 224.67 906.058 226.87L906.206 258.97C906.215 260.97 905.523 262.773 904.13 264.379C902.737 265.786 900.94 266.494 898.74 266.504L845.341 266.749L846.054 422.147C846.064 424.347 845.372 426.15 843.979 427.557C842.585 428.963 840.788 429.672 838.588 429.682L798.989 429.863ZM976.598 432.048C952.998 432.157 934.169 425.843 920.111 413.107C906.052 400.372 898.665 381.405 897.949 356.208C897.943 354.808 897.935 353.008 897.925 350.809C897.915 348.609 897.907 346.909 897.901 345.709C898.429 329.906 901.867 316.39 908.215 305.161C914.763 293.731 923.723 285.089 935.097 279.237C946.669 273.184 960.155 270.122 975.555 270.051C993.155 269.971 1007.67 273.404 1019.1 280.352C1030.73 287.298 1039.48 296.758 1045.33 308.732C1051.19 320.705 1054.15 334.391 1054.22 349.791L1054.25 356.991C1054.26 359.191 1053.47 360.995 1051.88 362.402C1050.49 363.809 1048.79 364.516 1046.79 364.526L950.79 364.966C950.791 365.166 950.792 365.466 950.794 365.866C950.796 366.266 950.798 366.666 950.8 367.066C951.026 372.865 952.051 378.16 953.873 382.952C955.695 387.744 958.512 391.531 962.325 394.313C966.138 397.096 970.744 398.475 976.144 398.45C980.144 398.432 983.441 397.817 986.036 396.605C988.829 395.192 991.122 393.681 992.915 392.073C994.707 390.265 996.1 388.758 997.094 387.554C998.885 385.546 1000.28 384.339 1001.28 383.935C1002.47 383.329 1004.27 383.021 1006.67 383.01L1043.87 382.839C1045.87 382.83 1047.48 383.423 1048.68 384.617C1050.09 385.611 1050.69 387.108 1050.5 389.109C1050.32 392.51 1048.64 396.617 1045.46 401.432C1042.28 406.247 1037.6 411.068 1031.42 415.897C1025.45 420.524 1017.86 424.359 1008.68 427.401C999.491 430.443 988.798 431.992 976.598 432.048ZM950.654 335.266L1001.35 335.034L1001.35 334.434C1001.32 328.034 1000.3 322.438 998.273 317.648C996.451 312.856 993.535 309.169 989.523 306.588C985.711 304.005 981.105 302.726 975.705 302.751C970.305 302.776 965.711 304.097 961.923 306.714C958.335 309.331 955.552 313.044 953.574 317.853C951.596 322.662 950.622 328.266 950.651 334.666L950.654 335.266ZM1090.21 428.527C1088.01 428.537 1086.21 427.845 1084.8 426.452C1083.39 425.058 1082.68 423.261 1082.67 421.061L1082.03 280.063C1082.02 278.063 1082.71 276.36 1084.1 274.953C1085.5 273.347 1087.29 272.539 1089.49 272.529L1123.99 272.37C1126.19 272.36 1128 273.152 1129.4 274.746C1130.81 276.139 1131.52 277.836 1131.53 279.836L1131.58 291.836C1136.95 285.611 1143.33 280.782 1150.72 277.348C1158.3 273.913 1166.79 272.174 1176.19 272.131L1189.39 272.07C1191.39 272.061 1193.09 272.753 1194.5 274.147C1196.11 275.539 1196.92 277.336 1196.93 279.536L1197.07 310.435C1197.08 312.435 1196.28 314.239 1194.69 315.846C1193.3 317.253 1191.6 317.961 1189.6 317.97L1160.5 318.103C1152.3 318.141 1145.91 320.47 1141.33 325.091C1136.95 329.511 1134.78 335.821 1134.82 344.021L1135.17 420.821C1135.18 423.021 1134.39 424.824 1132.8 426.232C1131.4 427.638 1129.61 428.346 1127.41 428.356L1090.21 428.527ZM1263.11 430.734C1252.31 430.783 1242.6 428.828 1233.99 424.867C1225.57 420.706 1218.84 415.137 1213.81 408.16C1208.78 401.183 1206.24 393.294 1206.2 384.494C1206.14 370.294 1211.88 359.068 1223.45 350.815C1235.01 342.362 1250.38 336.591 1269.57 333.503L1307.04 327.631L1307.02 323.431C1306.99 316.231 1305.46 310.738 1302.45 306.952C1299.43 303.166 1293.92 301.291 1285.92 301.328C1280.32 301.353 1275.73 302.474 1272.14 304.691C1268.75 306.906 1266.06 309.919 1264.08 313.728C1262.29 316.336 1259.79 317.648 1256.6 317.662L1223 317.816C1220.8 317.827 1219.09 317.234 1217.89 316.04C1216.68 314.645 1216.17 313.048 1216.37 311.247C1216.35 307.647 1217.63 303.541 1220.21 298.929C1222.99 294.116 1227.17 289.397 1232.74 284.771C1238.32 280.146 1245.51 276.313 1254.29 273.272C1263.08 270.232 1273.67 268.683 1286.07 268.627C1299.07 268.567 1310.18 270.016 1319.39 272.974C1328.6 275.931 1336.02 280.097 1341.65 285.472C1347.47 290.845 1351.8 297.225 1354.64 304.612C1357.47 311.799 1358.91 319.793 1358.95 328.593L1359.36 419.792C1359.37 421.992 1358.58 423.795 1356.99 425.203C1355.6 426.609 1353.9 427.317 1351.9 427.326L1317.1 427.486C1314.9 427.496 1313.1 426.804 1311.69 425.411C1310.28 424.017 1309.58 422.22 1309.57 420.02L1309.52 409.52C1306.93 413.332 1303.45 416.848 1299.07 420.068C1294.68 423.289 1289.49 425.812 1283.5 427.64C1277.71 429.667 1270.91 430.698 1263.11 430.734ZM1277.06 396.469C1282.86 396.443 1288.05 395.219 1292.64 392.798C1297.43 390.176 1301.11 386.259 1303.69 381.047C1306.46 375.634 1307.83 368.928 1307.79 360.928L1307.77 356.728L1282.3 361.345C1272.9 362.988 1266.01 365.52 1261.63 368.94C1257.45 372.159 1255.36 375.969 1255.38 380.369C1255.4 383.768 1256.41 386.664 1258.42 389.055C1260.43 391.445 1263.04 393.334 1266.25 394.719C1269.45 395.904 1273.06 396.488 1277.06 396.469ZM1417.28 427.026C1415.28 427.035 1413.48 426.344 1411.87 424.951C1410.46 423.557 1409.76 421.761 1409.75 419.561L1409.24 310.362L1386.44 310.466C1384.24 310.476 1382.44 309.785 1381.04 308.391C1379.63 306.998 1378.92 305.201 1378.91 303.001L1378.8 278.701C1378.79 276.501 1379.48 274.698 1380.87 273.292C1382.27 271.885 1384.06 271.177 1386.26 271.167L1409.06 271.062L1409.02 261.462C1408.96 247.862 1411.51 236.951 1416.67 228.727C1422.03 220.302 1429.6 214.267 1439.39 210.622C1449.17 206.777 1460.86 204.824 1474.46 204.761L1497.86 204.654C1499.86 204.645 1501.56 205.337 1502.97 206.731C1504.58 208.123 1505.38 209.92 1505.39 212.119L1505.51 236.419C1505.52 238.619 1504.72 240.423 1503.13 241.83C1501.74 243.237 1500.04 243.944 1498.04 243.954L1477.04 244.05C1470.24 244.081 1465.45 245.703 1462.66 248.916C1460.08 252.128 1458.8 256.734 1458.83 262.734L1458.86 270.834L1495.16 270.667C1497.16 270.658 1498.87 271.35 1500.27 272.744C1501.88 274.136 1502.69 275.933 1502.7 278.133L1502.81 302.432C1502.82 304.632 1502.03 306.436 1500.43 307.843C1499.04 309.25 1497.34 309.957 1495.34 309.967L1459.04 310.133L1459.54 419.332C1459.56 421.532 1458.86 423.335 1457.47 424.742C1456.08 426.148 1454.28 426.856 1452.08 426.866L1417.28 427.026ZM1554.15 483.399C1552.35 483.407 1550.85 482.814 1549.65 481.619C1548.44 480.425 1547.83 478.928 1547.83 477.128C1547.82 476.728 1547.82 476.128 1547.82 475.328C1548.01 474.727 1548.31 474.025 1548.71 473.223L1571.85 416.717L1513.62 280.782C1513.02 279.385 1512.71 278.187 1512.71 277.187C1513.1 275.385 1513.89 273.881 1515.09 272.676C1516.28 271.27 1517.78 270.563 1519.58 270.555L1553.78 270.398C1556.38 270.386 1558.28 271.077 1559.49 272.472C1560.89 273.665 1561.8 275.061 1562.21 276.659L1597.11 363.8L1631.81 276.34C1632.6 274.736 1633.59 273.332 1634.79 272.126C1636.18 270.72 1638.18 270.011 1640.78 269.999L1674.38 269.845C1676.18 269.836 1677.68 270.53 1678.89 271.924C1680.29 273.118 1681 274.514 1681 276.114C1681.01 277.114 1680.72 278.416 1680.12 280.018L1596.13 476.906C1595.53 478.509 1594.54 479.913 1593.14 481.12C1591.75 482.526 1589.75 483.235 1587.15 483.247L1554.15 483.399Z"
        fill="white" />
</svg>