<svg width="33" height="32" viewBox="0 0 33 32" fill="none" xmlns="http://www.w3.org/2000/svg">
<path d="M26.8106 27.9981C25.4734 29.982 24.0556 31.9179 21.8967 31.9499C19.7378 31.9979 19.045 30.686 16.5962 30.686C14.1312 30.686 13.3739 31.9179 11.3278 31.9979C9.21726 32.0779 7.62226 29.886 6.26893 27.9501C3.51393 23.9984 1.40337 16.7189 4.23893 11.8232C5.6406 9.39138 8.15393 7.85548 10.8767 7.80748C12.9389 7.77548 14.9045 9.19939 16.1773 9.19939C17.4339 9.19939 19.8184 7.4875 22.3156 7.74349C23.3628 7.79148 26.295 8.15946 28.18 10.9113C28.035 11.0073 24.6839 12.9591 24.7162 17.0069C24.7645 21.8385 28.9856 23.4544 29.0339 23.4704C28.9856 23.5824 28.3573 25.7743 26.8106 27.9981ZM17.6112 2.39984C18.7873 1.07193 20.7367 0.0639957 22.3478 0C22.5573 1.87188 21.8 3.75975 20.6723 5.10366C19.5606 6.46357 17.7239 7.5195 15.9195 7.37551C15.6778 5.53563 16.58 3.61576 17.6112 2.39984Z" fill="#D9E2F0"/>
</svg>
