<svg width="650" height="650" viewBox="0 0 650 650" fill="none" xmlns="http://www.w3.org/2000/svg">
    <path
        d="M325 75C463.071 75 575 186.929 575 325C575 463.071 463.071 575 325 575C186.929 575 75 463.071 75 325C75 186.929 186.929 75 325 75ZM325 150C228.35 150 150 228.35 150 325C150 421.65 228.35 500 325 500C421.65 500 500 421.65 500 325C500 228.35 421.65 150 325 150Z"
        fill="white" />
    <path
        d="M325 0C504.493 0 650 145.507 650 325C650 504.493 504.493 650 325 650C145.507 650 0 504.493 0 325C0 145.507 145.507 0 325 0ZM325 75C186.929 75 75 186.929 75 325C75 463.071 186.929 575 325 575C463.071 575 575 463.071 575 325C575 186.929 463.071 75 325 75ZM325 150C421.65 150 500 228.35 500 325C500 421.65 421.65 500 325 500C228.35 500 150 421.65 150 325C150 228.35 228.35 150 325 150ZM325 225C269.772 225 225 269.772 225 325C225 380.228 269.772 425 325 425C380.228 425 425 380.228 425 325C425 269.772 380.228 225 325 225Z"
        fill="white" fill-opacity="0.05" />
</svg>