<svg width="33" height="32" viewBox="0 0 33 32" fill="none" xmlns="http://www.w3.org/2000/svg">
<g clip-path="url(#clip0_537_2404)">
<path opacity="0.75" d="M16.748 6.41855C19.0572 6.38027 21.2887 7.23542 22.9581 8.7984L27.6169 4.23597C24.6777 1.52982 20.7819 0.0444677 16.748 0.0919234C13.7363 0.0914272 10.7838 0.910869 8.22017 2.45873C5.65657 4.00658 3.58283 6.2219 2.23059 8.85726L7.65775 12.9774C8.28191 11.0904 9.49472 9.4425 11.1254 8.26589C12.7561 7.08928 14.7226 6.44318 16.748 6.41855Z" fill="white"/>
<path d="M2.2306 8.85742C1.09462 11.0741 0.503052 13.52 0.503052 16.0001C0.503052 18.4803 1.09462 20.9262 2.2306 23.1428L7.65777 19.0227C6.97702 17.0628 6.97702 14.9375 7.65777 12.9776L2.2306 8.85742Z" fill="white"/>
<path opacity="0.65" d="M22.2482 24.0621C20.9923 24.8516 19.5689 25.3498 18.0865 25.5187C16.6041 25.6875 15.1019 25.5226 13.6945 25.0365C12.2871 24.5503 11.0117 23.7558 9.96546 22.7136C8.91927 21.6713 8.12995 20.4089 7.65772 19.0225L2.23218 23.1426C3.58417 25.7775 5.6574 27.9925 8.22037 29.5403C10.7833 31.0882 13.7352 31.9079 16.7463 31.908C20.7005 32.0124 24.5461 30.6336 27.4967 28.0535L22.2482 24.0621Z" fill="white"/>
<path opacity="0.3" d="M32.0466 13.1084H16.7479V19.2616H25.4905C25.3095 20.235 24.9289 21.1623 24.3716 21.9875C23.8143 22.8127 23.092 23.5186 22.2482 24.0627L27.4983 28.0556C29.0973 26.5479 30.3548 24.7279 31.1893 22.7136C32.0238 20.6993 32.4166 18.5357 32.3423 16.3632C32.3423 15.2687 32.2437 14.1838 32.0466 13.1084Z" fill="white"/>
</g>
<defs>
<clipPath id="clip0_537_2404">
<rect width="32" height="32" fill="white" transform="translate(0.5)"/>
</clipPath>
</defs>
</svg>
