<svg width="1024" height="1024" viewBox="0 0 1024 1024" fill="none" xmlns="http://www.w3.org/2000/svg">
<rect width="1024" height="1024" fill="#0891B2"/>
<path d="M512 262C650.071 262 762 373.929 762 512C762 650.071 650.071 762 512 762C373.929 762 262 650.071 262 512C262 373.929 373.929 262 512 262ZM512 337C415.35 337 337 415.35 337 512C337 608.65 415.35 687 512 687C608.65 687 687 608.65 687 512C687 415.35 608.65 337 512 337Z" fill="white"/>
<path d="M512 187C691.493 187 837 332.507 837 512C837 691.493 691.493 837 512 837C332.507 837 187 691.493 187 512C187 332.507 332.507 187 512 187ZM512 262C373.929 262 262 373.929 262 512C262 650.071 373.929 762 512 762C650.071 762 762 650.071 762 512C762 373.929 650.071 262 512 262ZM512 337C608.65 337 687 415.35 687 512C687 608.65 608.65 687 512 687C415.35 687 337 608.65 337 512C337 415.35 415.35 337 512 337ZM512 412C456.772 412 412 456.772 412 512C412 567.228 456.772 612 512 612C567.228 612 612 567.228 612 512C612 456.772 567.228 412 512 412Z" fill="white" fill-opacity="0.05"/>
</svg>
